<svg height="512" viewBox="0 0 512 512" width="512" xmlns="http://www.w3.org/2000/svg" xmlns:xlink="http://www.w3.org/1999/xlink"><linearGradient id="a" gradientUnits="userSpaceOnUse" x1="118.76" x2="602.312" y1="617.24" y2="133.688" data-name="New Gradient Swatch 1"><stop offset="0" stop-color="#003f8a"/><stop offset=".518" stop-color="#00d7df"/><stop offset="1" stop-color="#006df0"/></linearGradient><linearGradient id="b" x1="66.76" x2="550.312" xlink:href="#a" y1="565.24" y2="81.688"/><linearGradient id="c" x1="14.76" x2="498.312" xlink:href="#a" y1="513.24" y2="29.688"/><linearGradient id="d" x1="222.76" x2="706.312" xlink:href="#a" y1="721.24" y2="237.688"/><linearGradient id="e" x1="170.76" x2="654.312" xlink:href="#a" y1="669.24" y2="185.688"/><linearGradient id="f" x1="86.76" x2="570.312" xlink:href="#a" y1="585.24" y2="101.688"/><linearGradient id="g" x1="34.76" x2="518.312" xlink:href="#a" y1="533.24" y2="49.688"/><linearGradient id="h" x1="-17.24" x2="466.312" xlink:href="#a" y1="481.24" y2="-2.312"/><linearGradient id="i" x1="190.76" x2="674.312" xlink:href="#a" y1="689.24" y2="205.688"/><linearGradient id="j" x1="54.76" x2="538.312" xlink:href="#a" y1="553.24" y2="69.688"/><linearGradient id="k" x1="2.76" x2="486.312" xlink:href="#a" y1="501.24" y2="17.688"/><linearGradient id="l" x1="-49.24" x2="434.312" xlink:href="#a" y1="449.24" y2="-34.312"/><linearGradient id="m" x1="158.76" x2="642.312" xlink:href="#a" y1="657.24" y2="173.688"/><linearGradient id="n" x1="22.76" x2="506.312" xlink:href="#a" y1="521.24" y2="37.688"/><linearGradient id="o" x1="-81.24" x2="402.312" xlink:href="#a" y1="417.24" y2="-66.312"/><linearGradient id="p" x1="126.76" x2="610.312" xlink:href="#a" y1="625.24" y2="141.688"/><linearGradient id="q" x1="-113.24" x2="370.312" xlink:href="#a" y1="385.24" y2="-98.312"/><linearGradient id="r" x1="94.76" x2="578.312" xlink:href="#a" y1="593.24" y2="109.688"/><linearGradient id="s" x1="-145.24" x2="338.312" xlink:href="#a" y1="353.24" y2="-130.312"/><linearGradient id="t" x1="62.76" x2="546.312" xlink:href="#a" y1="561.24" y2="77.688"/><linearGradient id="u" x1="30.76" x2="514.312" xlink:href="#a" y1="529.24" y2="45.688"/><linearGradient id="v" x1="-1.24" x2="482.312" xlink:href="#a" y1="497.24" y2="13.688"/><g><path d="m288 456h-64a8 8 0 0 0 -8 8v32a8 8 0 0 0 8 8h64a8 8 0 0 0 8-8v-32a8 8 0 0 0 -8-8zm-8 32h-48v-16h48z" fill="url(#a)"/><path d="m184 456h-64a8 8 0 0 0 -8 8v32a8 8 0 0 0 8 8h64a8 8 0 0 0 8-8v-32a8 8 0 0 0 -8-8zm-8 32h-48v-16h48z" fill="url(#b)"/><path d="m80 456h-64a8 8 0 0 0 -8 8v32a8 8 0 0 0 8 8h64a8 8 0 0 0 8-8v-32a8 8 0 0 0 -8-8zm-8 32h-48v-16h48z" fill="url(#c)"/><path d="m496 456h-64a8 8 0 0 0 -8 8v32a8 8 0 0 0 8 8h64a8 8 0 0 0 8-8v-32a8 8 0 0 0 -8-8zm-8 32h-48v-16h48z" fill="url(#d)"/><path d="m392 456h-64a8 8 0 0 0 -8 8v32a8 8 0 0 0 8 8h64a8 8 0 0 0 8-8v-32a8 8 0 0 0 -8-8zm-8 32h-48v-16h48z" fill="url(#e)"/><path d="m288 392h-64a8 8 0 0 0 -8 8v32a8 8 0 0 0 8 8h64a8 8 0 0 0 8-8v-32a8 8 0 0 0 -8-8zm-8 32h-48v-16h48z" fill="url(#f)"/><path d="m184 392h-64a8 8 0 0 0 -8 8v32a8 8 0 0 0 8 8h64a8 8 0 0 0 8-8v-32a8 8 0 0 0 -8-8zm-8 32h-48v-16h48z" fill="url(#g)"/><path d="m80 392h-64a8 8 0 0 0 -8 8v32a8 8 0 0 0 8 8h64a8 8 0 0 0 8-8v-32a8 8 0 0 0 -8-8zm-8 32h-48v-16h48z" fill="url(#h)"/><path d="m496 392h-64a8 8 0 0 0 -8 8v32a8 8 0 0 0 8 8h64a8 8 0 0 0 8-8v-32a8 8 0 0 0 -8-8zm-8 32h-48v-16h48z" fill="url(#i)"/><path d="m288 328h-64a8 8 0 0 0 -8 8v32a8 8 0 0 0 8 8h64a8 8 0 0 0 8-8v-32a8 8 0 0 0 -8-8zm-8 32h-48v-16h48z" fill="url(#j)"/><path d="m184 328h-64a8 8 0 0 0 -8 8v32a8 8 0 0 0 8 8h64a8 8 0 0 0 8-8v-32a8 8 0 0 0 -8-8zm-8 32h-48v-16h48z" fill="url(#k)"/><path d="m80 328h-64a8 8 0 0 0 -8 8v32a8 8 0 0 0 8 8h64a8 8 0 0 0 8-8v-32a8 8 0 0 0 -8-8zm-8 32h-48v-16h48z" fill="url(#l)"/><path d="m496 328h-64a8 8 0 0 0 -8 8v32a8 8 0 0 0 8 8h64a8 8 0 0 0 8-8v-32a8 8 0 0 0 -8-8zm-8 32h-48v-16h48z" fill="url(#m)"/><path d="m288 264h-64a8 8 0 0 0 -8 8v32a8 8 0 0 0 8 8h64a8 8 0 0 0 8-8v-32a8 8 0 0 0 -8-8zm-8 32h-48v-16h48z" fill="url(#n)"/><path d="m80 264h-64a8 8 0 0 0 -8 8v32a8 8 0 0 0 8 8h64a8 8 0 0 0 8-8v-32a8 8 0 0 0 -8-8zm-8 32h-48v-16h48z" fill="url(#o)"/><path d="m496 264h-64a8 8 0 0 0 -8 8v32a8 8 0 0 0 8 8h64a8 8 0 0 0 8-8v-32a8 8 0 0 0 -8-8zm-8 32h-48v-16h48z" fill="url(#p)"/><path d="m80 200h-64a8 8 0 0 0 -8 8v32a8 8 0 0 0 8 8h64a8 8 0 0 0 8-8v-32a8 8 0 0 0 -8-8zm-8 32h-48v-16h48z" fill="url(#q)"/><path d="m496 200h-64a8 8 0 0 0 -8 8v32a8 8 0 0 0 8 8h64a8 8 0 0 0 8-8v-32a8 8 0 0 0 -8-8zm-8 32h-48v-16h48z" fill="url(#r)"/><path d="m80 136h-64a8 8 0 0 0 -8 8v32a8 8 0 0 0 8 8h64a8 8 0 0 0 8-8v-32a8 8 0 0 0 -8-8zm-8 32h-48v-16h48z" fill="url(#s)"/><path d="m496 136h-64a8 8 0 0 0 -8 8v32a8 8 0 0 0 8 8h64a8 8 0 0 0 8-8v-32a8 8 0 0 0 -8-8zm-8 32h-48v-16h48z" fill="url(#t)"/><path d="m496 72h-64a8 8 0 0 0 -8 8v32a8 8 0 0 0 8 8h64a8 8 0 0 0 8-8v-32a8 8 0 0 0 -8-8zm-8 32h-48v-16h48z" fill="url(#u)"/><path d="m496 8h-64a8 8 0 0 0 -8 8v32a8 8 0 0 0 8 8h64a8 8 0 0 0 8-8v-32a8 8 0 0 0 -8-8zm-8 32h-48v-16h48z" fill="url(#v)"/></g></svg>