<?xml version="1.0" encoding="iso-8859-1"?>
<!-- Generator: Adobe Illustrator 19.0.0, SVG Export Plug-In . SVG Version: 6.00 Build 0)  -->
<svg version="1.1" id="Capa_1" xmlns="http://www.w3.org/2000/svg" xmlns:xlink="http://www.w3.org/1999/xlink" x="0px" y="0px"
	 viewBox="0 0 512 512" style="enable-background:new 0 0 512 512;" xml:space="preserve">
<g>
	<g>
		<g>
			<path fill="#FFF" d="M448,352h-32c-17.673,0-32,14.327-32,32v96c0,17.673,14.327,32,32,32h32c35.346,0,64-28.654,64-64v-32
				C512,380.654,483.346,352,448,352z M480,448c0,17.673-14.327,32-32,32h-32v-96h32c17.673,0,32,14.327,32,32V448z"/>
			<polygon fill="#FFF" points="336,416 272,416 272,352 240,352 240,512 272,512 272,448 336,448 336,512 368,512 368,352 336,352 			"/>
			<path fill="#FFF" d="M128,32h224v272h32v-32h64v32h32V48c0-26.51-21.49-48-48-48H48C21.49,0,0,21.49,0,48v416c0,26.51,21.49,48,48,48h144v-32
				h-64V32z M384,32h48c8.837,0,16,7.163,16,16v80h-64V32z M384,160h64v80h-64V160z M96,480H48c-8.837,0-16-7.163-16-16v-80h64V480z
				 M96,352H32v-80h64V352z M96,240H32v-80h64V240z M96,128H32V48c0-8.837,7.163-16,16-16h48V128z"/>
		</g>
	</g>
</g>
<g>
</g>
<g>
</g>
<g>
</g>
<g>
</g>
<g>
</g>
<g>
</g>
<g>
</g>
<g>
</g>
<g>
</g>
<g>
</g>
<g>
</g>
<g>
</g>
<g>
</g>
<g>
</g>
<g>
</g>
</svg>
