<svg id="Layer_1" enable-background="new 0 0 512 512" height="512" viewBox="0 0 512 512" width="512" xmlns="http://www.w3.org/2000/svg"><g>
<path fill="#FFF" d="m208 224h-16v16h16c4.41 0 8-3.59 8-8s-3.59-8-8-8z"/>
<path fill="#FFF" d="m84.599 400.21c89.447 106.564 253.695 106.12 342.802 0 2.727-3.248.397-8.209-3.843-8.209h-335.116c-4.241-.001-6.57 4.96-3.843 8.209z"/>
<path fill="#FFF" d="m427.401 111.79c-89.446-106.564-253.695-106.12-342.801.001-2.727 3.248-.397 8.209 3.843 8.209h335.115c4.241 0 6.57-4.961 3.843-8.21z"/>
<path fill="#FFF" d="m0 176v160c0 13.255 10.745 24 24 24h464c13.255 0 24-10.745 24-24v-160c0-13.255-10.745-24-24-24h-464c-13.255 0-24 10.745-24 24zm424 64c8.84 0 16 7.16 16 16s-7.16 16-16 16h-24v16h40c8.84 0 16 7.16 16 16s-7.16 16-16 16h-56c-8.84 0-16-7.16-16-16v-96c0-8.84 7.16-16 16-16h56c8.84 0 16 7.16 16 16s-7.16 16-16 16h-40v16zm-368 64v-96c0-8.84 7.16-16 16-16h56c8.84 0 16 7.16 16 16s-7.16 16-16 16h-40v16h24c8.84 0 16 7.16 16 16s-7.16 16-16 16h-24v32c0 8.84-7.16 16-16 16s-16-7.16-16-16zm264-64c8.84 0 16 7.16 16 16s-7.16 16-16 16h-24v16h40c8.84 0 16 7.16 16 16s-7.16 16-16 16h-56c-8.84 0-16-7.16-16-16v-96c0-8.84 7.16-16 16-16h56c8.84 0 16 7.16 16 16s-7.16 16-16 16h-40v16zm-72 40v24c0 8.84-7.16 16-16 16s-16-7.16-16-16v-24c0-4.41-3.59-8-8-8h-16v32c0 8.84-7.16 16-16 16s-16-7.16-16-16v-96c0-8.84 7.16-16 16-16h32c33.115 0 51.587 37.974 31.98 64 5.04 6.69 8.02 15 8.02 24z"/></g></svg>