<?xml version="1.0"?>
<svg xmlns="http://www.w3.org/2000/svg" xmlns:xlink="http://www.w3.org/1999/xlink" width="512" height="512" viewBox="0 0 512 512"><defs><linearGradient id="a" x1="46.375" y1="501.625" x2="563.113" y2="-15.113" gradientUnits="userSpaceOnUse"><stop offset="0" stop-color="#003f8a"/><stop offset="0.518" stop-color="#00d7df"/><stop offset="1" stop-color="#144583"/></linearGradient><linearGradient id="b" x1="73.875" y1="529.125" x2="590.613" y2="12.387" xlink:href="#a"/><linearGradient id="c" x1="-27.625" y1="427.625" x2="489.113" y2="-89.113" xlink:href="#a"/><linearGradient id="d" x1="-23.625" y1="431.625" x2="493.113" y2="-85.113" xlink:href="#a"/><linearGradient id="e" x1="54.375" y1="509.625" x2="571.113" y2="-7.113" xlink:href="#a"/><linearGradient id="f" x1="56.375" y1="511.625" x2="573.113" y2="-5.113" xlink:href="#a"/><linearGradient id="g" x1="60.375" y1="515.625" x2="577.113" y2="-1.113" xlink:href="#a"/><linearGradient id="h" x1="168.375" y1="623.625" x2="685.113" y2="106.887" xlink:href="#a"/><linearGradient id="i" x1="116.375" y1="571.625" x2="633.113" y2="54.887" xlink:href="#a"/><linearGradient id="j" x1="142.375" y1="597.625" x2="659.113" y2="80.887" xlink:href="#a"/></defs><g><path d="M104,464H48a8,8,0,0,0,0,16h56a8,8,0,0,0,0-16Z" fill="url(#a)"/><path d="M135,464h-8a8,8,0,0,0,0,16h8a8,8,0,0,0,0-16Z" fill="url(#b)"/><path d="M163.578,280.845l-64-32A8,8,0,0,0,88,256v64a8,8,0,0,0,11.578,7.155l64-32a8,8,0,0,0,0-14.31ZM104,307.056V268.944L142.111,288Z" fill="url(#c)"/><path d="M200,328V248a24.028,24.028,0,0,0-24-24H64a24.027,24.027,0,0,0-24,24v80a24.027,24.027,0,0,0,24,24H176A24.028,24.028,0,0,0,200,328Zm-16,0a8.009,8.009,0,0,1-8,8H64a8.009,8.009,0,0,1-8-8V248a8.009,8.009,0,0,1,8-8H176a8.009,8.009,0,0,1,8,8Z" fill="url(#d)"/><path d="M448,8H192a40.04,40.04,0,0,0-40,40v72H56a40.04,40.04,0,0,0-40,40V464a40.04,40.04,0,0,0,40,40H448a40.04,40.04,0,0,0,40-40V48A40.04,40.04,0,0,0,448,8ZM157.75,136l-4,16H86.25l-4-16ZM208,464a24.032,24.032,0,0,1-24,24H56a24.032,24.032,0,0,1-24-24V160a24.032,24.032,0,0,1,24-24h9.75l6.49,25.94A8,8,0,0,0,80,168h80a8,8,0,0,0,7.76-6.06L174.25,136H184a24.032,24.032,0,0,1,24,24ZM192,120.81V48H448V440H224V160A40.05,40.05,0,0,0,192,120.81ZM472,464a24.032,24.032,0,0,1-24,24H215.98A39.808,39.808,0,0,0,224,464v-8H456a8,8,0,0,0,8-8V40a8,8,0,0,0-8-8H184a8,8,0,0,0-8,8v80h-8V48a24.032,24.032,0,0,1,24-24H448a24.032,24.032,0,0,1,24,24Z" fill="url(#e)"/><path d="M291.794,294.806a8,8,0,0,0,7.784.349l64-32a8,8,0,0,0,0-14.31l-64-32A8,8,0,0,0,288,224v64A8,8,0,0,0,291.794,294.806ZM304,236.944,342.111,256,304,275.056Z" fill="url(#f)"/><path d="M264,320H376a24.028,24.028,0,0,0,24-24V216a24.028,24.028,0,0,0-24-24H264a24.028,24.028,0,0,0-24,24v80A24.028,24.028,0,0,0,264,320Zm-8-104a8.009,8.009,0,0,1,8-8H376a8.009,8.009,0,0,1,8,8v80a8.009,8.009,0,0,1-8,8H264a8.009,8.009,0,0,1-8-8Z" fill="url(#g)"/><circle cx="320" cy="472" r="8" fill="url(#h)"/><path d="M240,432h48a8,8,0,0,0,0-16H240a8,8,0,0,0,0,16Z" fill="url(#i)"/><path d="M320,416h-8a8,8,0,0,0,0,16h8a8,8,0,0,0,0-16Z" fill="url(#j)"/></g></svg>
