<?xml version="1.0" encoding="iso-8859-1"?>
<!-- Generator: Adobe Illustrator 19.0.0, SVG Export Plug-In . SVG Version: 6.00 Build 0)  -->
<svg version="1.1" id="Capa_1" xmlns="http://www.w3.org/2000/svg" xmlns:xlink="http://www.w3.org/1999/xlink" x="0px" y="0px"
	 viewBox="0 0 512 512" style="enable-background:new 0 0 512 512;" xml:space="preserve">
<g>
	<g>
		<g>
			<path fill="#FFF" d="M464,0H48C21.49,0,0,21.49,0,48v416c0,26.51,21.49,48,48,48h416c26.51,0,48-21.49,48-48V48C512,21.49,490.51,0,464,0z
				 M480,464c0,8.837-7.163,16-16,16H48c-8.837,0-16-7.163-16-16V48c0-8.837,7.163-16,16-16h416c8.837,0,16,7.163,16,16V464z"/>
			<rect fill="#FFF" x="64" y="64" width="32" height="32"/>
			<rect fill="#FFF" x="416" y="64" width="32" height="32"/>
			<rect fill="#FFF" x="416" y="416" width="32" height="32"/>
			<rect fill="#FFF" x="64" y="416" width="32" height="32"/>
			<path fill="#FFF" d="M336,176h-32c-17.673,0-32,14.327-32,32v96c0,17.673,14.327,32,32,32h32c35.346,0,64-28.654,64-64v-32
				C400,204.654,371.346,176,336,176z M368,272c0,17.673-14.327,32-32,32h-32v-96h32c17.673,0,32,14.327,32,32V272z"/>
			<path fill="#FFF" d="M176,208h32c8.837,0,16,7.163,16,16h32c0-26.51-21.49-48-48-48h-32c-26.51,0-48,21.49-48,48c0,26.51,21.49,48,48,48h32
				c8.837,0,16,7.163,16,16s-7.163,16-16,16h-32c-8.837,0-16-7.163-16-16h-32c0,26.51,21.49,48,48,48h32c26.51,0,48-21.49,48-48
				c0-26.51-21.49-48-48-48h-32c-8.837,0-16-7.163-16-16S167.163,208,176,208z"/>
		</g>
	</g>
</g>
<g>
</g>
<g>
</g>
<g>
</g>
<g>
</g>
<g>
</g>
<g>
</g>
<g>
</g>
<g>
</g>
<g>
</g>
<g>
</g>
<g>
</g>
<g>
</g>
<g>
</g>
<g>
</g>
<g>
</g>
</svg>
