<svg height="512" viewBox="0 0 512 512" width="512" xmlns="http://www.w3.org/2000/svg" xmlns:xlink="http://www.w3.org/1999/xlink"><linearGradient id="linear-gradient" gradientUnits="userSpaceOnUse" x1="16.985" x2="517.85" y1="476.515" y2="-24.35"><stop offset="0" stop-color="#003f8a"/><stop offset=".518" stop-color="#00d7df"/><stop offset="1" stop-color="#006df0"/></linearGradient><linearGradient id="linear-gradient-2" x1="26.235" x2="527.1" xlink:href="#linear-gradient" y1="485.765" y2="-15.1"/><linearGradient id="linear-gradient-3" x1="-68.977" x2="431.887" xlink:href="#linear-gradient" y1="390.552" y2="-110.312"/><linearGradient id="linear-gradient-4" x1="-53.765" x2="447.1" xlink:href="#linear-gradient" y1="405.765" y2="-95.1"/><linearGradient id="linear-gradient-5" x1="122.239" x2="623.103" xlink:href="#linear-gradient" y1="581.768" y2="80.904"/><linearGradient id="linear-gradient-6" x1="107.027" x2="607.891" xlink:href="#linear-gradient" y1="566.556" y2="65.692"/><linearGradient id="linear-gradient-7" x1="-47.765" x2="453.1" xlink:href="#linear-gradient" y1="411.765" y2="-89.1"/><linearGradient id="linear-gradient-8" x1="100.235" x2="601.1" xlink:href="#linear-gradient" y1="559.765" y2="58.9"/><g id="Streaming"><path d="m302.854 249.288-74-48a8 8 0 0 0 -12.354 6.712v96a8 8 0 0 0 12.354 6.712l74-48a8 8 0 0 0 0-13.424zm-70.354 39.987v-66.55l51.3 33.275z" fill="url(#linear-gradient)"/><path d="m256 136a120 120 0 1 0 120 120 120.136 120.136 0 0 0 -120-120zm0 224a104 104 0 1 1 104-104 104.118 104.118 0 0 1 -104 104z" fill="url(#linear-gradient-2)"/><path d="m24 256c0-38.056 15.808-74.3 45.714-104.818a8 8 0 0 0 -11.428-11.2c-32.897 33.57-50.286 73.688-50.286 116.018 0 43.083 17.953 83.77 51.917 117.663a8 8 0 0 0 11.3-11.326c-30.889-30.826-47.217-67.596-47.217-106.337z" fill="url(#linear-gradient-3)"/><path d="m72 256c0-27.157 10.389-53.491 30.044-76.155a8 8 0 0 0 -12.088-10.483c-22.214 25.616-33.956 55.575-33.956 86.638s11.742 61.023 33.956 86.638a8 8 0 0 0 12.088-10.483c-19.655-22.664-30.044-48.998-30.044-76.155z" fill="url(#linear-gradient-4)"/><path d="m452.082 139.919a8 8 0 0 0 -11.3 11.326c30.89 30.825 47.218 67.596 47.218 106.338 0 38.055-15.808 74.3-45.714 104.817a8 8 0 0 0 11.428 11.2c32.897-33.57 50.286-73.688 50.286-116.017 0-43.083-17.953-83.771-51.918-117.664z" fill="url(#linear-gradient-5)"/><path d="m422.044 170.945a8 8 0 1 0 -12.088 10.482c19.655 22.664 30.044 49 30.044 76.156s-10.389 53.49-30.044 76.155a8 8 0 1 0 12.088 10.482c22.214-25.615 33.956-55.574 33.956-86.637s-11.742-61.023-33.956-86.638z" fill="url(#linear-gradient-6)"/><path d="m120 248h-24a8 8 0 0 0 0 16h24a8 8 0 0 0 0-16z" fill="url(#linear-gradient-7)"/><path d="m424 256a8 8 0 0 0 -8-8h-24a8 8 0 0 0 0 16h24a8 8 0 0 0 8-8z" fill="url(#linear-gradient-8)"/></g></svg>