<svg height="512" viewBox="0 0 512 512" width="512" xmlns="http://www.w3.org/2000/svg" xmlns:xlink="http://www.w3.org/1999/xlink"><linearGradient id="linear-gradient" gradientUnits="userSpaceOnUse" x1="14.471" x2="508.588" y1="497.529" y2="3.412"><stop offset="0" stop-color="#003f8a"/><stop offset=".518" stop-color="#00d7df"/><stop offset="1" stop-color="#006df0"/></linearGradient><linearGradient id="linear-gradient-2" x1="-1.529" x2="492.588" xlink:href="#linear-gradient" y1="481.529" y2="-12.588"/><linearGradient id="linear-gradient-3" x1="32.471" x2="526.588" xlink:href="#linear-gradient" y1="515.529" y2="21.412"/><linearGradient id="linear-gradient-4" x1="2.471" x2="496.588" xlink:href="#linear-gradient" y1="485.529" y2="-8.588"/><g id="Youtube"><path d="m464 80h-416a40.045 40.045 0 0 0 -40 40v272a40.045 40.045 0 0 0 40 40h416a40.045 40.045 0 0 0 40-40v-272a40.045 40.045 0 0 0 -40-40zm24 312a24.027 24.027 0 0 1 -24 24h-416a24.027 24.027 0 0 1 -24-24v-272a24.027 24.027 0 0 1 24-24h416a24.027 24.027 0 0 1 24 24z" fill="url(#linear-gradient)"/><path d="m128 384h-80a8 8 0 0 0 0 16h80a8 8 0 0 0 0-16z" fill="url(#linear-gradient-2)"/><path d="m160 384h-8a8 8 0 0 0 0 16h8a8 8 0 0 0 0-16z" fill="url(#linear-gradient-3)"/><path d="m323.969 249.054-112-64a8 8 0 0 0 -11.969 6.946v128a8 8 0 0 0 11.969 6.946l112-64a8 8 0 0 0 0-13.892zm-107.969 57.16v-100.428l87.876 50.214z" fill="url(#linear-gradient-4)"/></g></svg>